<svg xmlns="http://www.w3.org/2000/svg" viewBox="0 0 500 500"><g id="freepik--background-simple--inject-16"><path d="M487.71,216.11a156.47,156.47,0,0,0-13.08-39.61c-21.05-43-60.9-79.21-108.92-96.77-55.74-20.38-121,1.15-154.8,45.52-17.71,23.24-42.55,42.44-70.15,55.27-11.31,5.26-23.34,9.61-35.86,11.74-13.27,2.26-29.27,3.14-41,9.87C12.91,231.47,3.05,300,17,349.25c10.06,35.47,35.5,61.76,76,68.27,35.8,5.75,69.75-4.17,105.13-7,41.54-3.34,84.94-.36,125.68,10.13,34.45,8.87,75,23.33,106.28-1.3,27.9-22,40.56-55.77,49.1-87.45C489.2,294.73,495,254.42,487.71,216.11Z" style="fill:#407BFF"></path><path d="M487.71,216.11a156.47,156.47,0,0,0-13.08-39.61c-21.05-43-60.9-79.21-108.92-96.77-55.74-20.38-121,1.15-154.8,45.52-17.71,23.24-42.55,42.44-70.15,55.27-11.31,5.26-23.34,9.61-35.86,11.74-13.27,2.26-29.27,3.14-41,9.87C12.91,231.47,3.05,300,17,349.25c10.06,35.47,35.5,61.76,76,68.27,35.8,5.75,69.75-4.17,105.13-7,41.54-3.34,84.94-.36,125.68,10.13,34.45,8.87,75,23.33,106.28-1.3,27.9-22,40.56-55.77,49.1-87.45C489.2,294.73,495,254.42,487.71,216.11Z" style="fill:#fff;opacity:0.7000000000000001"></path></g><g id="freepik--puzzle-pieces--inject-16"><path d="M42,179.89a4.75,4.75,0,0,0,.69,2.3l-.28,0c.37,0,1.33,2,1.47,2.29a6.16,6.16,0,0,1,.35,1H29.32v14.87A3.59,3.59,0,0,0,31,200c.3-.14,2.24-1.15,2.19-1.54l0,.29a4.2,4.2,0,0,1,2.19-.72c2.53,0,4.58,2.67,4.58,6s-2,6-4.58,6a4.12,4.12,0,0,1-3.27-1.8c-1.37-1.1-2.25-1.33-2.8-1.29V222H45.06c.19.46.26,1.48-1.14,3.37a4.46,4.46,0,0,0-1.71,3.43c0,2.65,2.54,4.8,5.68,4.8s7.39-3.25,5.19-6.74c-.1-.15-1.17-2.15-1.33-2.48a3.14,3.14,0,0,1-.39-2.38H65.75v0h0V207.37a3.23,3.23,0,0,0-1.84.4c-.31.14-2.25,1.16-2.19,1.54l0-.29a4.24,4.24,0,0,1-2.19.73c-2.53,0-4.58-2.67-4.58-6s2.05-6,4.58-6a4.14,4.14,0,0,1,3.27,1.79c1.54,1.25,2.47,1.38,3,1.27V185.57H51.3c0,.19-.88.08-.88.08,0-.58.24-1,1.24-2.33a4.46,4.46,0,0,0,1.71-3.43c0-2.65-2.55-4.79-5.69-4.79S42,177.24,42,179.89Z" style="fill:#263238;stroke:#263238;stroke-miterlimit:10"></path><path d="M43.3,255.91c.1-.15,1.19-2.1,1.36-2.42a3.93,3.93,0,0,0,.49-1.59H30.49v14.18a3.37,3.37,0,0,0,1.88-.39c.31-.14,2.29-1.13,2.23-1.5l0,.28a4.47,4.47,0,0,1,2.24-.7c2.58,0,4.67,2.59,4.67,5.8s-2.09,5.8-4.67,5.8a4.29,4.29,0,0,1-3.34-1.74c-1.57-1.22-2.52-1.35-3.05-1.24v14.84h-.12v.13h14.7a3.06,3.06,0,0,0-.41-2.25c-.17-.33-1.26-2.27-1.36-2.42-2.25-3.4,2.24-6.56,5.29-6.56s5.8,2.09,5.8,4.67a4.27,4.27,0,0,1-1.75,3.34c-1.36,1.77-1.35,2.75-1.18,3.22H67.54v-15c.53-.11,1.48,0,3,1.24a4.27,4.27,0,0,0,3.34,1.75c2.58,0,4.67-2.6,4.67-5.81s-2.09-5.8-4.67-5.8a4.58,4.58,0,0,0-2.24.7l0-.28c.06.38-1.92,1.36-2.23,1.5a3.46,3.46,0,0,1-1.88.4V251.9H51.39a5.24,5.24,0,0,0,1.25,2.56,4.27,4.27,0,0,1,1.75,3.34c0,2.58-2.6,4.67-5.8,4.67S41.05,259.31,43.3,255.91Z" style="fill:#263238;stroke:#263238;stroke-miterlimit:10"></path><path d="M393.26,209.51a4.42,4.42,0,0,0-2.23.71l0-.28c.05.37-1.93,1.36-2.24,1.5a5.57,5.57,0,0,1-1,.35V196.58H373.25a3.67,3.67,0,0,0,.42,1.68c.13.31,1.12,2.29,1.5,2.23l-.29,0a4.49,4.49,0,0,1,.71,2.24c0,2.58-2.6,4.67-5.81,4.67s-5.8-2.09-5.8-4.67a4.27,4.27,0,0,1,1.75-3.34,4.51,4.51,0,0,0,1.26-2.85H352.27v16.06c-.45.19-1.44.26-3.29-1.16a4.25,4.25,0,0,0-3.33-1.75c-2.58,0-4.68,2.6-4.68,5.8s3.16,7.54,6.56,5.29c.15-.1,2.1-1.19,2.42-1.36a3,3,0,0,1,2.32-.39v14.68H366.5a3.37,3.37,0,0,0-.39-1.88c-.14-.31-1.12-2.28-1.5-2.23l.28,0a4.47,4.47,0,0,1-.7-2.24c0-2.58,2.59-4.67,5.8-4.67s5.8,2.09,5.8,4.67a4.29,4.29,0,0,1-1.74,3.34c-1.22,1.57-1.35,2.52-1.24,3.05h14.92V219c-.18,0-.07-.9-.07-.9.56,0,.94.24,2.26,1.26a4.27,4.27,0,0,0,3.34,1.75c2.58,0,4.67-2.6,4.67-5.8S395.84,209.51,393.26,209.51Z" style="fill:#263238;stroke:#263238;stroke-miterlimit:10"></path><path d="M98.89,345.57a4.42,4.42,0,0,0-2.23.71l0-.28c0,.37-1.93,1.36-2.24,1.5a4.91,4.91,0,0,1-1,.35V332.64H78.88a3.67,3.67,0,0,0,.42,1.68c.13.31,1.12,2.29,1.49,2.24l-.28,0a4.42,4.42,0,0,1,.71,2.23c0,2.58-2.6,4.67-5.81,4.67s-5.8-2.09-5.8-4.67a4.27,4.27,0,0,1,1.75-3.34,4.51,4.51,0,0,0,1.26-2.85H57.9V348.7c-.45.2-1.44.26-3.29-1.16a4.25,4.25,0,0,0-3.33-1.75c-2.58,0-4.68,2.6-4.68,5.8s3.16,7.54,6.56,5.29c.15-.1,2.1-1.19,2.42-1.36a3,3,0,0,1,2.32-.39v14.69H72.13a3.37,3.37,0,0,0-.39-1.88c-.14-.3-1.13-2.28-1.5-2.23l.28,0a4.41,4.41,0,0,1-.7-2.24c0-2.58,2.59-4.67,5.8-4.67s5.8,2.09,5.8,4.67a4.29,4.29,0,0,1-1.74,3.34c-1.22,1.58-1.35,2.53-1.24,3.05H93.36V355.07c-.18,0-.07-.9-.07-.9.56,0,.94.25,2.26,1.26a4.27,4.27,0,0,0,3.34,1.75c2.58,0,4.67-2.6,4.67-5.8S101.47,345.57,98.89,345.57Z" style="fill:#263238;stroke:#263238;stroke-miterlimit:10"></path><path d="M81.12,232.15a5.87,5.87,0,0,0,1-.36c.3-.14,2.28-1.12,2.23-1.5l0,.28a4.51,4.51,0,0,1,2.24-.7c2.58,0,4.67,2.6,4.67,5.8s-2.09,5.81-4.67,5.81a4.27,4.27,0,0,1-3.34-1.75c-1.32-1-1.71-1.27-2.27-1.26,0,0-.11.86.08.89V254h14a3.48,3.48,0,0,0-.4-1.81c-.14-.31-1.12-2.29-1.5-2.24l.28,0a4.41,4.41,0,0,1-.7-2.23c0-2.58,2.6-4.67,5.8-4.67s5.81,2.09,5.81,4.67a4.27,4.27,0,0,1-1.75,3.34c-1.17,1.51-1.33,2.44-1.25,3h14.76V239.29a3.25,3.25,0,0,0-2.07.46l-2.42,1.35c-3.4,2.25-6.56-2.23-6.56-5.28,0-3.21,2.09-5.81,4.68-5.81a4.25,4.25,0,0,1,3.33,1.75c1.56,1.21,2.51,1.34,3,1.24V216.87H101.71a3.62,3.62,0,0,0,.41,1.67c.14.31,1.12,2.29,1.5,2.24l-.28,0a4.41,4.41,0,0,1,.7,2.23c0,2.59-2.59,4.68-5.8,4.68s-5.8-2.09-5.8-4.68a4.27,4.27,0,0,1,1.74-3.33,4.58,4.58,0,0,0,1.27-2.85H80.93v.07h.19Z" style="fill:#263238;stroke:#263238;stroke-miterlimit:10"></path></g><g id="freepik--Character--inject-16"><ellipse cx="185.94" cy="436.54" rx="100.93" ry="28.14" style="fill:#263238;stroke:#263238;stroke-miterlimit:10"></ellipse><path d="M156.34,146.51c-.15-.1-2.09-1.19-2.42-1.36a3.89,3.89,0,0,0-1.58-.49v14.66h14.18a3.46,3.46,0,0,0-.4-1.88c-.14-.3-1.12-2.28-1.5-2.23l.28,0a4.51,4.51,0,0,1-.7-2.24c0-2.58,2.6-4.67,5.8-4.67s5.81,2.09,5.81,4.67a4.27,4.27,0,0,1-1.75,3.34c-1.22,1.58-1.34,2.53-1.24,3h14.85v.13h.13V144.74a3.12,3.12,0,0,0-2.26.41c-.32.17-2.27,1.26-2.42,1.36-3.4,2.25-6.56-2.24-6.56-5.29s2.09-5.8,4.67-5.8a4.27,4.27,0,0,1,3.34,1.75c1.77,1.36,2.75,1.36,3.23,1.18V122.27h-15c-.11-.52,0-1.47,1.23-3a4.27,4.27,0,0,0,1.75-3.34c0-2.58-2.6-4.67-5.8-4.67s-5.81,2.09-5.81,4.67a4.42,4.42,0,0,0,.71,2.24l-.28,0c.37,0,1.36,1.93,1.5,2.23a3.46,3.46,0,0,1,.39,1.88H152.34v16.15a5.22,5.22,0,0,0,2.55-1.25,4.27,4.27,0,0,1,3.34-1.75c2.58,0,4.67,2.6,4.67,5.8S159.74,148.76,156.34,146.51Z" style="fill:#263238;stroke:#263238;stroke-miterlimit:10"></path><path d="M76.06,73.49c.1-.15,1.19-2.09,1.35-2.42a3.75,3.75,0,0,0,.5-1.58H63.25V83.67a3.41,3.41,0,0,0,1.87-.4c.31-.14,2.29-1.12,2.24-1.5l0,.28a4.51,4.51,0,0,1,2.23-.7c2.58,0,4.68,2.6,4.68,5.8S72.21,93,69.63,93a4.25,4.25,0,0,1-3.33-1.75c-1.58-1.22-2.53-1.34-3-1.23v14.84h-.13V105h14.7a3,3,0,0,0-.41-2.26c-.16-.32-1.25-2.27-1.35-2.42-2.25-3.4,2.24-6.56,5.29-6.56,3.2,0,5.8,2.09,5.8,4.67a4.27,4.27,0,0,1-1.75,3.34C84,103.49,84,104.47,84.22,105H100.3V90c.52-.11,1.47,0,3,1.23A4.25,4.25,0,0,0,106.69,93c2.58,0,4.67-2.6,4.67-5.8s-2.09-5.81-4.67-5.81a4.42,4.42,0,0,0-2.24.71c0-.1,0-.19,0-.28,0,.37-1.93,1.36-2.24,1.5a3.4,3.4,0,0,1-1.87.39V69.49H84.15A5.22,5.22,0,0,0,85.4,72a4.27,4.27,0,0,1,1.75,3.34c0,2.58-2.6,4.67-5.8,4.67C78.3,80.05,73.81,76.89,76.06,73.49Z" style="fill:#263238;stroke:#263238;stroke-miterlimit:10"></path><path d="M123,135.38a4.25,4.25,0,0,0-3.34,1.75c-1.56,1.2-2.51,1.34-3,1.23V122.23h14.48a3.66,3.66,0,0,1-.41,1.68c-.14.31-1.12,2.29-1.5,2.23l.28,0a4.47,4.47,0,0,0-.7,2.24c0,2.58,2.59,4.67,5.8,4.67s5.8-2.09,5.8-4.67a4.29,4.29,0,0,0-1.74-3.34,4.54,4.54,0,0,1-1.27-2.85h14.72v16.06c.46.19,1.45.26,3.29-1.16a4.27,4.27,0,0,1,3.34-1.75c2.58,0,4.67,2.6,4.67,5.8,0,3-3.16,7.54-6.56,5.29-.15-.1-2.09-1.19-2.42-1.36a3,3,0,0,0-2.32-.39V159.4H137.27a4.86,4.86,0,0,0,1.26,2.68,4.27,4.27,0,0,1,1.75,3.34c0,2.58-2.6,4.67-5.81,4.67s-5.8-2.09-5.8-4.67a4.58,4.58,0,0,1,.7-2.24l-.28,0c.38.06,1.36-1.92,1.5-2.23a4,4,0,0,0,.42-1.51H116.65V144.66a3.24,3.24,0,0,1,2.07.45c.32.17,2.27,1.26,2.42,1.36,3.4,2.25,6.56-2.24,6.56-5.29C127.7,138,125.61,135.38,123,135.38Z" style="fill:#fff"></path><path d="M223.08,137.36a4.91,4.91,0,0,0,1-.35c.31-.14,2.29-1.13,2.23-1.5l0,.28a4.47,4.47,0,0,1,2.24-.7c2.58,0,4.67,2.59,4.67,5.8s-2.09,5.8-4.67,5.8a4.27,4.27,0,0,1-3.34-1.75c-1.32-1-1.7-1.27-2.27-1.26,0,0-.11.86.08.9v14.67h14a3.59,3.59,0,0,0-.39-1.81c-.14-.3-1.13-2.28-1.5-2.23l.28,0a4.42,4.42,0,0,1-.71-2.24c0-2.58,2.6-4.67,5.81-4.67s5.8,2.09,5.8,4.67a4.27,4.27,0,0,1-1.75,3.34c-1.17,1.51-1.33,2.45-1.24,3h14.75V144.51a3.26,3.26,0,0,0-2.07.45c-.32.17-2.26,1.26-2.41,1.36-3.4,2.25-6.56-2.24-6.56-5.29s2.09-5.8,4.67-5.8a4.27,4.27,0,0,1,3.34,1.75c1.56,1.2,2.5,1.34,3,1.23V122.08H243.67a3.67,3.67,0,0,0,.42,1.68c.13.31,1.12,2.29,1.5,2.23l-.29,0a4.49,4.49,0,0,1,.71,2.24c0,2.58-2.6,4.67-5.81,4.67s-5.8-2.09-5.8-4.67a4.27,4.27,0,0,1,1.75-3.34,4.51,4.51,0,0,0,1.26-2.85H222.89v.07h.19Z" style="fill:#fff"></path><path d="M228.61,135.09a4.47,4.47,0,0,0-2.24.7l0-.28c.06.37-1.92,1.36-2.23,1.5a4.91,4.91,0,0,1-1,.35V122.15H208.6a3.79,3.79,0,0,0,.41,1.68c.14.31,1.13,2.29,1.5,2.24l-.28,0a4.42,4.42,0,0,1,.71,2.23c0,2.58-2.6,4.67-5.81,4.67s-5.8-2.09-5.8-4.67a4.27,4.27,0,0,1,1.75-3.34,4.51,4.51,0,0,0,1.26-2.85H187.62v16.06c-.45.2-1.44.26-3.29-1.16A4.27,4.27,0,0,0,181,135.3c-2.58,0-4.67,2.6-4.67,5.8s3.16,7.54,6.56,5.29c.15-.1,2.1-1.19,2.42-1.36a3,3,0,0,1,2.32-.39v14.69h14.23a3.46,3.46,0,0,0-.39-1.88c-.14-.3-1.13-2.28-1.5-2.23l.28,0a4.42,4.42,0,0,1-.71-2.24c0-2.58,2.6-4.67,5.81-4.67s5.8,2.09,5.8,4.67a4.27,4.27,0,0,1-1.75,3.34c-1.21,1.58-1.34,2.53-1.23,3h14.92V144.58c-.19,0-.08-.9-.08-.9.57,0,.95.25,2.27,1.26a4.27,4.27,0,0,0,3.34,1.75c2.58,0,4.67-2.6,4.67-5.8S231.19,135.09,228.61,135.09Z" style="fill:#263238;stroke:#263238;stroke-miterlimit:10"></path><path d="M228.61,61.05a4.49,4.49,0,0,0-2.24.71l0-.28c.06.37-1.92,1.36-2.23,1.5a5.57,5.57,0,0,1-1,.35V48.12H208.6A3.79,3.79,0,0,0,209,49.8c.14.31,1.13,2.29,1.5,2.23l-.28,0a4.49,4.49,0,0,1,.71,2.24c0,2.58-2.6,4.67-5.81,4.67s-5.8-2.09-5.8-4.67A4.27,4.27,0,0,1,201.08,51a4.51,4.51,0,0,0,1.26-2.85H187.62V64.18c-.45.19-1.44.26-3.29-1.16A4.27,4.27,0,0,0,181,61.27c-2.58,0-4.67,2.6-4.67,5.8s3.16,7.54,6.56,5.29c.15-.1,2.1-1.19,2.42-1.36a3,3,0,0,1,2.32-.39V85.29h14.23a3.46,3.46,0,0,0-.39-1.88c-.14-.31-1.13-2.28-1.5-2.23l.28,0a4.46,4.46,0,0,1-.71-2.24c0-2.58,2.6-4.67,5.81-4.67s5.8,2.09,5.8,4.67a4.27,4.27,0,0,1-1.75,3.34c-1.21,1.57-1.34,2.52-1.23,3.05h14.92V70.55c-.19,0-.08-.9-.08-.9.57,0,.95.24,2.27,1.26a4.27,4.27,0,0,0,3.34,1.75c2.58,0,4.67-2.6,4.67-5.8S231.19,61.05,228.61,61.05Z" style="fill:#263238;stroke:#263238;stroke-miterlimit:10"></path><path d="M156.9,45.93a4.41,4.41,0,0,0-2.23.7l0-.28c.05.37-1.93,1.36-2.24,1.5a4.82,4.82,0,0,1-1,.35V33H136.89a3.8,3.8,0,0,0,.42,1.68c.14.31,1.12,2.29,1.5,2.24l-.28,0a4.51,4.51,0,0,1,.7,2.23c0,2.58-2.6,4.67-5.8,4.67s-5.81-2.09-5.81-4.67a4.27,4.27,0,0,1,1.75-3.34A4.45,4.45,0,0,0,130.63,33H115.91V49.05c-.45.2-1.44.26-3.28-1.16a4.27,4.27,0,0,0-3.34-1.75c-2.58,0-4.67,2.6-4.67,5.8s3.16,7.54,6.56,5.29c.15-.1,2.09-1.19,2.41-1.35a3,3,0,0,1,2.32-.4V70.17h14.24a3.46,3.46,0,0,0-.4-1.88c-.14-.3-1.12-2.28-1.5-2.23l.28,0a4.41,4.41,0,0,1-.7-2.24c0-2.58,2.6-4.67,5.8-4.67s5.81,2.09,5.81,4.67a4.25,4.25,0,0,1-1.75,3.34c-1.22,1.58-1.35,2.53-1.24,3h14.93V55.42c-.19,0-.08-.9-.08-.9.56,0,.95.25,2.27,1.27a4.27,4.27,0,0,0,3.33,1.74c2.58,0,4.68-2.6,4.68-5.8S159.48,45.93,156.9,45.93Z" style="fill:#263238;stroke:#263238;stroke-miterlimit:10"></path><path d="M128.55,79.53a4.66,4.66,0,0,0,.7,2.3l-.28,0c.37-.06,1.33,2,1.47,2.29a6.16,6.16,0,0,1,.35,1H115.88v14.87a3.59,3.59,0,0,0,1.65-.43c.3-.14,2.24-1.15,2.19-1.54l0,.29a4.2,4.2,0,0,1,2.19-.72c2.53,0,4.58,2.67,4.58,6s-2,6-4.58,6a4.11,4.11,0,0,1-3.27-1.8c-1.37-1.1-2.25-1.33-2.8-1.29v15.11h15.74c.19.46.26,1.48-1.14,3.37a4.46,4.46,0,0,0-1.71,3.43c0,2.65,2.54,4.8,5.68,4.8s7.39-3.25,5.19-6.74c-.1-.15-1.17-2.15-1.33-2.48a3.14,3.14,0,0,1-.39-2.38h14.39v-.05h0V107a3.23,3.23,0,0,0-1.84.4c-.31.14-2.25,1.16-2.19,1.54l0-.29a4.24,4.24,0,0,1-2.19.73c-2.53,0-4.58-2.67-4.58-6s2.05-6,4.58-6a4.14,4.14,0,0,1,3.27,1.79c1.54,1.25,2.47,1.38,3,1.27V85.21H137.86c0,.19-.88.08-.88.08,0-.58.24-1,1.24-2.33a4.46,4.46,0,0,0,1.71-3.43c0-2.65-2.55-4.79-5.69-4.79S128.55,76.88,128.55,79.53Z" style="fill:#263238;stroke:#263238;stroke-miterlimit:10"></path><path d="M266.55,32.2a4.69,4.69,0,0,0,.7,2.3l-.28,0c.37-.06,1.33,2,1.47,2.29a6.05,6.05,0,0,1,.35,1H253.88V52.74a3.46,3.46,0,0,0,1.65-.42c.3-.14,2.24-1.15,2.19-1.54l0,.29a4.2,4.2,0,0,1,2.19-.72c2.53,0,4.58,2.66,4.58,5.95s-2,6-4.58,6a4.1,4.1,0,0,1-3.27-1.79c-1.37-1.11-2.25-1.34-2.8-1.3V74.29h15.74c.19.46.26,1.48-1.14,3.37a4.43,4.43,0,0,0-1.71,3.43c0,2.65,2.54,4.8,5.68,4.8s7.39-3.25,5.19-6.74c-.1-.15-1.17-2.15-1.33-2.48a3.14,3.14,0,0,1-.39-2.38h14.39v-.05h0V59.67a3.16,3.16,0,0,0-1.84.41c-.31.14-2.25,1.15-2.19,1.54l0-.29a4.23,4.23,0,0,1-2.19.72c-2.53,0-4.58-2.67-4.58-6s2-6,4.58-6a4.12,4.12,0,0,1,3.27,1.8c1.54,1.25,2.47,1.38,3,1.27V37.87H275.86c0,.2-.88.08-.88.08,0-.57.24-1,1.24-2.32a4.48,4.48,0,0,0,1.71-3.43c0-2.65-2.55-4.8-5.69-4.8S266.55,29.55,266.55,32.2Z" style="fill:#263238;stroke:#263238;stroke-miterlimit:10"></path><path d="M193.28,98a4.49,4.49,0,0,0-2.24.71l0-.28c.06.37-1.92,1.36-2.23,1.5a5.84,5.84,0,0,1-1,.35V85.1H173.27a3.66,3.66,0,0,0,.41,1.68c.14.31,1.13,2.29,1.5,2.24l-.28,0a4.42,4.42,0,0,1,.71,2.23c0,2.58-2.6,4.67-5.81,4.67s-5.8-2.09-5.8-4.67A4.27,4.27,0,0,1,165.75,88,4.57,4.57,0,0,0,167,85.1H152.29v16.06c-.45.19-1.44.26-3.29-1.16a4.27,4.27,0,0,0-3.34-1.75c-2.58,0-4.67,2.6-4.67,5.8,0,3,3.16,7.54,6.56,5.29.15-.1,2.1-1.19,2.42-1.36a3,3,0,0,1,2.32-.39v14.69h14.23a3.46,3.46,0,0,0-.39-1.88c-.14-.3-1.13-2.28-1.5-2.23l.28,0a4.42,4.42,0,0,1-.71-2.24c0-2.58,2.6-4.67,5.81-4.67s5.8,2.09,5.8,4.67a4.27,4.27,0,0,1-1.75,3.34c-1.21,1.58-1.34,2.53-1.23,3h14.92V107.53c-.19,0-.08-.9-.08-.9.56,0,1,.25,2.27,1.26a4.27,4.27,0,0,0,3.34,1.75c2.58,0,4.67-2.6,4.67-5.8S195.86,98,193.28,98Z" style="fill:#263238;stroke:#263238;stroke-miterlimit:10"></path><path d="M263.78,98a4.42,4.42,0,0,0-2.23.71,2.7,2.7,0,0,1,0-.28c.05.37-1.93,1.36-2.24,1.5a5.47,5.47,0,0,1-1,.35V85.1H243.77a3.8,3.8,0,0,0,.42,1.68c.14.31,1.12,2.29,1.5,2.24l-.28,0a4.51,4.51,0,0,1,.7,2.23c0,2.58-2.6,4.67-5.8,4.67s-5.81-2.09-5.81-4.67A4.27,4.27,0,0,1,236.25,88a4.45,4.45,0,0,0,1.26-2.85H222.79v16.06c-.45.19-1.44.26-3.28-1.16a4.27,4.27,0,0,0-3.34-1.75c-2.58,0-4.67,2.6-4.67,5.8,0,3,3.16,7.54,6.56,5.29.15-.1,2.09-1.19,2.41-1.36a3,3,0,0,1,2.32-.39v14.69h14.66a5.2,5.2,0,0,1-1.26,2.6,4.27,4.27,0,0,0-1.75,3.34c0,2.58,2.6,4.67,5.8,4.67s5.81-2.09,5.81-4.67a4.49,4.49,0,0,0-.71-2.24l.28,0c-.37.06-1.36-1.92-1.5-2.23a4.2,4.2,0,0,1-.41-1.43h14.55V107.53c-.19,0-.08-.9-.08-.9.56,0,.95.25,2.26,1.26a4.27,4.27,0,0,0,3.34,1.75c2.58,0,4.67-2.6,4.67-5.8S266.36,98,263.78,98Z" style="fill:#263238;stroke:#263238;stroke-miterlimit:10"></path><path d="M329.38,121.5V107.42c-.19,0-.08-.9-.08-.9.56,0,.95.25,2.27,1.27a4.27,4.27,0,0,0,3.33,1.74c2.58,0,4.68-2.6,4.68-5.8s-2.1-5.8-4.68-5.8a4.41,4.41,0,0,0-2.23.7l0-.28c.05.37-1.93,1.36-2.24,1.5a4.82,4.82,0,0,1-1,.35V85H314.89a3.8,3.8,0,0,0,.42,1.68c.14.31,1.12,2.29,1.5,2.24l-.28,0a4.51,4.51,0,0,1,.7,2.23c0,2.58-2.6,4.67-5.8,4.67s-5.81-2.09-5.81-4.67a4.27,4.27,0,0,1,1.75-3.34A4.45,4.45,0,0,0,308.63,85H293.91v16.06c-.45.2-1.44.26-3.28-1.16a4.27,4.27,0,0,0-3.34-1.75c-2.58,0-4.67,2.6-4.67,5.8,0,3,3.16,7.54,6.56,5.29.15-.1,2.09-1.19,2.41-1.35a3,3,0,0,1,2.32-.4v14.68H279.55a3.83,3.83,0,0,0,.42,1.68c.14.31,1.14,2.28,1.52,2.23l-.29,0a4.4,4.4,0,0,1,.72,2.24c0,2.58-2.63,4.67-5.88,4.67s-5.88-2.09-5.88-4.67a4.26,4.26,0,0,1,1.77-3.34,4.48,4.48,0,0,0,1.28-2.85H258.3v16.05c-.46.2-1.46.27-3.33-1.16a4.35,4.35,0,0,0-3.38-1.74c-2.61,0-4.73,2.59-4.73,5.8,0,3,3.2,7.54,6.64,5.29.15-.1,2.12-1.19,2.45-1.36a3.07,3.07,0,0,1,2.35-.39v14.67H243.41c-.11-.52,0-1.47,1.23-3a4.27,4.27,0,0,0,1.75-3.34c0-2.58-2.6-4.67-5.8-4.67s-5.81,2.09-5.81,4.67a4.42,4.42,0,0,0,.71,2.24l-.28,0c.37-.05,1.36,1.93,1.5,2.23a3.46,3.46,0,0,1,.39,1.88h-14V175.4c-.47.18-1.45.19-3.23-1.18a4.25,4.25,0,0,0-3.33-1.75c-2.58,0-4.68,2.6-4.68,5.8,0,3,3.16,7.54,6.56,5.29.15-.1,2.1-1.19,2.42-1.36a3.08,3.08,0,0,1,2.26-.4v8H187.67v-8.07a3.93,3.93,0,0,1,1.59.49c.32.17,2.26,1.26,2.41,1.36,3.4,2.25,6.56-2.24,6.56-5.29,0-3.2-2.09-5.8-4.67-5.8a4.27,4.27,0,0,0-3.34,1.75,5.22,5.22,0,0,1-2.55,1.25V159.32H172.82c-.1-.52,0-1.47,1.24-3a4.27,4.27,0,0,0,1.75-3.34c0-2.58-2.6-4.67-5.81-4.67s-5.8,2.09-5.8,4.67a4.51,4.51,0,0,0,.7,2.24l-.28,0c.38-.05,1.36,1.93,1.5,2.23a3.46,3.46,0,0,1,.4,1.88H137.69a3.66,3.66,0,0,0,.41,1.68c.14.31,1.13,2.29,1.5,2.24l-.28,0a4.42,4.42,0,0,1,.71,2.23c0,2.58-2.6,4.67-5.81,4.67s-5.8-2.09-5.8-4.67a4.27,4.27,0,0,1,1.75-3.34,4.57,4.57,0,0,0,1.26-2.85h-15.1l0-14.63a4.29,4.29,0,0,1,1.63.5c.34.17,2.34,1.27,2.49,1.37,3.51,2.27,6.76-2.26,6.76-5.34s-2.15-5.85-4.81-5.85a4.41,4.41,0,0,0-3.44,1.76,5.42,5.42,0,0,1-2.63,1.27V122.09H101.06c-.12-.53,0-1.49,1.27-3.07a4.29,4.29,0,0,0,1.8-3.37c0-2.61-2.68-4.72-6-4.72s-6,2.11-6,4.72a4.42,4.42,0,0,0,.73,2.25l-.29,0c.38,0,1.4,2,1.54,2.26a3.34,3.34,0,0,1,.41,1.89H84.88c-3.24-4.1-8.83-8.85-15.07-8.85-9.5,0-10.5,9-10.5,9s13.5-2.5,11,8.5-8.5,22,.5,36.5,21,12,27.5,15,7.5,11.5,19.5,22a63,63,0,0,0,7.39,5.57,28,28,0,0,0,4.93,3.12,91.1,91.1,0,0,0,23.14,7.91h86.48s-1.17-5.78,20.36-8.86c20.7-2.95,48.93-16.34,52.49-39.52,1.08-7-2.13-14.69,1.71-21.22,5-8.5,14-12.5,16.5-10a12.24,12.24,0,0,1,3,4,18.47,18.47,0,0,0,4.5-13.5C338,126.89,333.34,123.51,329.38,121.5Z" style="fill:#263238;stroke:#263238;stroke-miterlimit:10"></path><path d="M216.57,172.47a4.25,4.25,0,0,1,3.33,1.75c1.77,1.36,2.75,1.36,3.23,1.18V159.32h-15c-.11-.52,0-1.47,1.23-3a4.27,4.27,0,0,0,1.75-3.34c0-2.58-2.6-4.67-5.8-4.67s-5.81,2.09-5.81,4.67a4.42,4.42,0,0,0,.71,2.24l-.28,0c.37-.05,1.36,1.93,1.5,2.23a3.46,3.46,0,0,1,.39,1.88H187.67v16.15a5.22,5.22,0,0,0,2.55-1.25,4.27,4.27,0,0,1,3.34-1.75c2.58,0,4.67,2.6,4.67,5.8,0,3-3.16,7.54-6.56,5.29-.15-.1-2.09-1.19-2.41-1.36a3.93,3.93,0,0,0-1.59-.49V196.5h13.07l-.15.2A5.57,5.57,0,0,0,199,201c.27,2.37,1.58,4.88,6,4.46,7.89-.73,5.58-6.49,4.06-8.91h14V181.79a3.12,3.12,0,0,0-2.26.41c-.32.17-2.27,1.26-2.42,1.36-3.4,2.25-6.56-2.24-6.56-5.29C211.89,175.07,214,172.47,216.57,172.47Z" style="fill:#fff"></path><path d="M159.31,242.24s-16.5-7.5-30,3-26.5,63-28,70,2,9,18,9,148,1.5,148,1.5l6.5-14.5s2-13-4.5-34c-1.53-4.93-2.73-8.82-3.66-11.88a39.1,39.1,0,0,0-20.46-24.06,23.16,23.16,0,0,0-11.38-2.56,43,43,0,0,0-22.5,8.5l-45-1Z" style="fill:#fff;stroke:#263238;stroke-linecap:round;stroke-linejoin:round"></path><path d="M265.65,265.36a39.1,39.1,0,0,0-20.46-24.06,23.16,23.16,0,0,0-11.38-2.56,43,43,0,0,0-22.5,8.5l-45-1-7-4s-16.5-7.5-30,3c-5.84,4.55-11.59,16.95-16.35,30.14,6.07-3.89,15-8.05,24.35-6.64,16.5,2.5,22,32.5,22,32.5l77-2.5s4.59-31.49,32.59-22.83C267.56,271.6,266.5,268.14,265.65,265.36Z" style="fill:#407BFF;stroke:#263238;stroke-linecap:round;stroke-linejoin:round"></path><path d="M154.56,264.52c1.8,4.18,3.51,9.38,3.51,14" style="fill:none;stroke:#263238;stroke-linecap:round;stroke-linejoin:round"></path><path d="M150.52,256.59s.8,1.29,1.87,3.37" style="fill:none;stroke:#263238;stroke-linecap:round;stroke-linejoin:round"></path><path d="M160.23,264.5s5,10.8,4.32,14.4" style="fill:none;stroke:#263238;stroke-linecap:round;stroke-linejoin:round"></path><path d="M227,265.71a72,72,0,0,0-4.86,15.71" style="fill:none;stroke:#263238;stroke-linecap:round;stroke-linejoin:round"></path><path d="M230.41,258.75s-1,1.66-2.29,4.44" style="fill:none;stroke:#263238;stroke-linecap:round;stroke-linejoin:round"></path><path d="M221.41,266.66s-4,4.68-4,14.4" style="fill:none;stroke:#263238;stroke-linecap:round;stroke-linejoin:round"></path><path d="M163.42,257.5s18,45.24,29.5,45.74,25.5-42.74,25.5-42.74Z" style="fill:#263238;stroke:#263238;stroke-miterlimit:10"></path><path d="M139.81,298.24s-21.5,41.5-26,71,5.5,49,30,61,62.5,15.5,82.5,7,34.5-24,31.5-59.5-17-81-21.5-89-27.5-8-34,2-11.5,28.5-13.5,32-14.5-30.5-21-35.5S156.31,280.24,139.81,298.24Z" style="fill:#4f4f4f;stroke:#263238;stroke-linecap:round;stroke-linejoin:round"></path><path d="M149.86,298.24s-16.77,41.5-20.28,71,4.29,49,23.4,61,48.75,15.5,64.35,7,26.91-24,24.57-59.5-13.26-81-16.77-89-21.45-8-26.52,2-9,28.5-10.53,32-11.31-30.5-16.38-35.5S162.73,280.24,149.86,298.24Z" style="fill:#263238;stroke:#263238;stroke-miterlimit:10"></path><path d="M186.9,345.8c.6-6.52,1.16-13,1.58-19.56.61-9.66,2.11-19.25,2.84-28.9,1.39-18.42,20.09-26.23,31.53-21.21s18.14,15.35,19.82,33.49-4.42,41-17.26,69.49S193.6,428.79,188,436,170.71,463.39,159,469s-21.21.56-21.21-8.65A18.59,18.59,0,0,1,145,445.64a107.7,107.7,0,0,0,9-7.92c10.88-10.61,24.84-20.1,26.23-30.14s3.44-19.77,4-29.76C184.87,367.13,185.93,356.47,186.9,345.8Z" style="fill:#4f4f4f;stroke:#263238;stroke-linecap:round;stroke-linejoin:round"></path><path d="M145,445.64a107.7,107.7,0,0,0,9-7.92c10.88-10.61,24.84-20.1,26.23-30.14,1.16-8.37,2.81-16.71,3.65-25.13,16.59-6.39,29.09,2.48,35.46,8.91C207.2,413.6,192.76,429.87,188,436c-5.59,7.26-17.31,27.35-29,32.93s-21.21.56-21.21-8.65A18.59,18.59,0,0,1,145,445.64Z" style="fill:#fff;stroke:#263238;stroke-linecap:round;stroke-linejoin:round"></path><path d="M145,445.64a107.7,107.7,0,0,0,9-7.92c4.29-4.19,9.06-8.2,13.35-12.14a10.43,10.43,0,0,1,7.3,3.21c4.75,5.3,5,16.18,5,16.18l2.38-.42c-6.15,8.86-14.59,20.4-23,24.42-11.72,5.58-21.21.56-21.21-8.65A18.59,18.59,0,0,1,145,445.64Z" style="fill:#407BFF;stroke:#263238;stroke-linecap:round;stroke-linejoin:round"></path><path d="M137.78,460.32a18.53,18.53,0,0,1,2-8.41c-.2,2.37-.35,5-.35,7.3,0,6.13,2.51,8.65,11.72,10,6,.91,12.92-3.85,17-7.28a34.74,34.74,0,0,1-9.22,7C147.27,474.55,137.78,469.53,137.78,460.32Z" style="fill:#fff;stroke:#263238;stroke-linecap:round;stroke-linejoin:round"></path><path d="M187.29,345.94c1.35-16.19,3.25-32.36,2-48.6-1.4-18.42-20.1-26.23-31.54-21.21S139.64,291.48,138,309.62s-5.59,41,7.25,69.49S177,428.79,182.62,436s17.3,27.35,29,32.93,21.21.56,21.21-8.65h0a18.59,18.59,0,0,0-7.21-14.68,107.7,107.7,0,0,1-9-7.92c-10.88-10.61-24.83-20.1-26.23-30.14s-3.43-19.77-4-29.76A224.69,224.69,0,0,1,187.29,345.94Z" style="fill:#4f4f4f;stroke:#263238;stroke-linecap:round;stroke-linejoin:round"></path><path d="M225.64,445.64a107.7,107.7,0,0,1-9-7.92c-10.88-10.61-24.83-20.1-26.23-30.14-1.16-8.37-2.8-16.71-3.65-25.13-16.58-6.39-29.09,2.48-35.45,8.91,12.1,22.24,26.54,38.51,31.29,44.68,5.58,7.26,17.3,27.35,29,32.93s21.21.56,21.21-8.65A18.59,18.59,0,0,0,225.64,445.64Z" style="fill:#fff;stroke:#263238;stroke-linecap:round;stroke-linejoin:round"></path><path d="M225.64,445.64a107.7,107.7,0,0,1-9-7.92c-4.29-4.19-9.06-8.2-13.35-12.14a10.45,10.45,0,0,0-7.3,3.21c-4.74,5.3-5,16.18-5,16.18l-2.38-.42c6.15,8.86,14.59,20.4,23,24.42,11.72,5.58,21.21.56,21.21-8.65A18.59,18.59,0,0,0,225.64,445.64Z" style="fill:#407BFF;stroke:#263238;stroke-linecap:round;stroke-linejoin:round"></path><path d="M232.85,460.32a18.53,18.53,0,0,0-2-8.41c.2,2.37.36,5,.36,7.3,0,6.13-2.52,8.65-11.72,10-6,.91-12.92-3.85-17-7.28a34.9,34.9,0,0,0,9.22,7C223.36,474.55,232.85,469.53,232.85,460.32Z" style="fill:#fff;stroke:#263238;stroke-linecap:round;stroke-linejoin:round"></path><path d="M149.59,214.18s-4.18-8.93-8.65-10.88-9.21,4.46-4.46,14.79,15.63,12.83,15.63,12.83Z" style="fill:#fff;stroke:#263238;stroke-linecap:round;stroke-linejoin:round"></path><path d="M150.53,223.77s-5.91-14.19-9.85-11.83" style="fill:none;stroke:#263238;stroke-linecap:round;stroke-linejoin:round"></path><path d="M229.39,213.06s4.19-8.93,8.65-10.88,9.21,4.46,4.47,14.79-15.63,12.84-15.63,12.84Z" style="fill:#fff;stroke:#263238;stroke-linecap:round;stroke-linejoin:round"></path><path d="M229,224.16s6.3-15,11-15" style="fill:none;stroke:#263238;stroke-linecap:round;stroke-linejoin:round"></path><path d="M147.73,208.31s0,2.24,3.37,4.1a19.39,19.39,0,0,0,5.6,2.24L155.58,199s-.38,3.73,7.84,7.84,7.46,3.74,9.33,4.48,10.83,1.5,10.83,1.5a57.17,57.17,0,0,1-.75-7.1c0-2.61,4.86-3.36,8.22-.75s9,6.35,9,6.35,1.12-8.59,4.85-12.69,12.7-9,12.7-3.36-5.23,14.93-5.23,14.93-.75,3.36,5.23,1.5S231,201.58,231,201.58s-2.61,23.15-2.61,34-7.1,27.26-14.94,34.35-15.68,11.58-22,12.33-20.91-11.21-30.24-25S150,221.75,149.6,219.13,147.73,208.31,147.73,208.31Z" style="fill:#fff;stroke:#263238;stroke-linecap:round;stroke-linejoin:round"></path><path d="M164.39,240.69s6.69,7.54,17.58.84" style="fill:none;stroke:#263238;stroke-linecap:round;stroke-linejoin:round;stroke-width:2px"></path><path d="M200.11,240.69s6.69,7.54,17.58.84" style="fill:none;stroke:#263238;stroke-linecap:round;stroke-linejoin:round;stroke-width:2px"></path><path d="M184.76,260.51a9.51,9.51,0,0,0,12.83-.28" style="fill:none;stroke:#263238;stroke-linecap:round;stroke-linejoin:round"></path><path d="M185.32,267.2a11.44,11.44,0,0,0,12.55,0" style="fill:none;stroke:#263238;stroke-linecap:round;stroke-linejoin:round"></path><path d="M160.48,230.09a24.79,24.79,0,0,1,21.59-2.38" style="fill:none;stroke:#263238;stroke-linecap:round;stroke-linejoin:round;stroke-width:3px"></path><path d="M198.71,226.74s10.61-6.14,21.21,3.91" style="fill:none;stroke:#263238;stroke-linecap:round;stroke-linejoin:round;stroke-width:3px"></path><path d="M235.27,318.27s-29.86,4.47-46.88.56-44.94-13.95-52.47-16.74-22.61-1.68-29.58,7.81-5.3,19.54,1.11,20.93,58.61,7,74,7,43.53-2.51,49.39-2.51a62,62,0,0,0,10.33-.84" style="fill:#fff;stroke:#263238;stroke-linecap:round;stroke-linejoin:round"></path><path d="M228.29,321.9s4.19-3.07,7.26-10,5-8.93,7.25-9.48,9.49-.56,12.28-3.63,6.42-2.51,6.42,1.67-6.7,6.7-6.7,6.7,8.66,4.47,10.33,4.74,5,.84,6.7.28,4.18-.83,4.18,2.79-4.18,5.87-4.46,7.26,1.12,4.74-.28,6.7-3.91,1.11-4.19,2.79.56,3.07-2.51,4.46-5.3,1.12-6.14,2.52,1.12,2.51-1.67,3.07-9.21-.56-14.23-3.35a59.76,59.76,0,0,0-5.87-3.07h-1.39l-7-1.68" style="fill:#fff;stroke:#263238;stroke-linecap:round;stroke-linejoin:round"></path><path d="M192.78,319.78l1.74.17c10,.84,36.28-.56,36.28-.56s3-2.87,7.54-12.84a7.59,7.59,0,0,1,2.8-3.41c-15.33-1.52-67.74-6.69-81.78-10.26-16.46-4.19-19.81-4.75-19.81-4.75s-5.3-1.39-9.21.28-29.86,8.38-32.1,10-3.06,9.21-3.06,10.05-3.07,4.18-3.35,7,2.79,6.14,2.79,6.14.83,4.47,2.51,5.3,5.3,1.4,6.14.56l.84-.83a11.39,11.39,0,0,1-.56-2.79v-1.12l4.18-4.75s15.07-6.14,21.77-8.09a22.22,22.22,0,0,0,10.33-6.42s34,12,52.46,16.19Z" style="fill:#fff;stroke:#263238;stroke-linecap:round;stroke-linejoin:round"></path><path d="M99.36,316.6s-3.63,7.26-3.63,8.09" style="fill:#fff;stroke:#263238;stroke-linecap:round;stroke-linejoin:round"></path><path d="M97.69,306.27l-.28,5s-3.35,8.65-2.79,10.32" style="fill:#fff;stroke:#263238;stroke-linecap:round;stroke-linejoin:round"></path></g></svg>