<svg xmlns="http://www.w3.org/2000/svg" viewBox="0 0 500 500"><g id="freepik--background-complete--inject-3"><rect x="416.78" y="398.49" width="33.12" height="0.25" style="fill:#ebebeb"></rect><rect x="322.53" y="401.21" width="8.69" height="0.25" style="fill:#ebebeb"></rect><rect x="396.59" y="389.21" width="19.19" height="0.25" style="fill:#ebebeb"></rect><rect x="52.46" y="390.89" width="43.19" height="0.25" style="fill:#ebebeb"></rect><rect x="104.56" y="390.89" width="6.33" height="0.25" style="fill:#ebebeb"></rect><rect x="131.47" y="395.11" width="93.68" height="0.25" style="fill:#ebebeb"></rect><path d="M237,337.8H43.92a5.71,5.71,0,0,1-5.71-5.71V60.66A5.71,5.71,0,0,1,43.92,55H237a5.71,5.71,0,0,1,5.71,5.71V332.09A5.71,5.71,0,0,1,237,337.8ZM43.92,55.2a5.47,5.47,0,0,0-5.46,5.46V332.09a5.47,5.47,0,0,0,5.46,5.46H237a5.47,5.47,0,0,0,5.46-5.46V60.66A5.47,5.47,0,0,0,237,55.2Z" style="fill:#ebebeb"></path><path d="M453.31,337.8H260.21a5.72,5.72,0,0,1-5.71-5.71V60.66A5.72,5.72,0,0,1,260.21,55h193.1A5.71,5.71,0,0,1,459,60.66V332.09A5.71,5.71,0,0,1,453.31,337.8ZM260.21,55.2a5.47,5.47,0,0,0-5.46,5.46V332.09a5.47,5.47,0,0,0,5.46,5.46h193.1a5.47,5.47,0,0,0,5.46-5.46V60.66a5.47,5.47,0,0,0-5.46-5.46Z" style="fill:#ebebeb"></path><rect y="382.4" width="500" height="0.25" style="fill:#ebebeb"></rect><rect x="351.54" y="157" width="75.03" height="75.03" transform="translate(778.1 389.03) rotate(180)" style="fill:#f0f0f0"></rect><rect x="358.78" y="164.24" width="60.55" height="60.55" rx="4.6" transform="translate(778.1 389.03) rotate(180)" style="fill:#fafafa"></rect><path d="M401.55,164.24a4.58,4.58,0,0,1-4.46,3.62H381a4.57,4.57,0,0,1-4.45-3.62Z" style="fill:#e0e0e0"></path><rect x="351.54" y="232.03" width="75.03" height="75.03" transform="translate(778.1 539.1) rotate(180)" style="fill:#f5f5f5"></rect><rect x="358.78" y="239.27" width="60.55" height="60.55" rx="4.6" transform="translate(778.1 539.1) rotate(180)" style="fill:#ebebeb"></rect><path d="M401.55,239.27a4.58,4.58,0,0,1-4.46,3.62H381a4.57,4.57,0,0,1-4.45-3.62Z" style="fill:#e0e0e0"></path><rect x="351.54" y="307.07" width="75.03" height="75.03" transform="translate(778.1 689.16) rotate(180)" style="fill:#f0f0f0"></rect><rect x="358.78" y="314.31" width="60.55" height="60.55" rx="4.6" transform="translate(778.1 689.16) rotate(180)" style="fill:#fafafa"></rect><path d="M401.55,314.31a4.58,4.58,0,0,1-4.46,3.61H381a4.56,4.56,0,0,1-4.45-3.61Z" style="fill:#e0e0e0"></path><rect x="342.34" y="157.26" width="9.19" height="224.84" transform="translate(693.88 539.36) rotate(180)" style="fill:#e6e6e6"></rect><circle cx="146" cy="154.34" r="53.84" style="fill:#f5f5f5"></circle><circle cx="146" cy="154.34" r="45.66" style="fill:#fafafa"></circle><path d="M146,108.68c-.72,0-1.43,0-2.14.06a45.66,45.66,0,0,1,0,91.21c.71,0,1.42.05,2.14.05a45.66,45.66,0,0,0,0-91.32Z" style="fill:#e6e6e6"></path><path d="M146,200h0c1.16,0,2.3-.16,3.43-.3V157.77h39.95c.08-1.13.14-2.27.14-3.43s-.06-2.29-.14-3.43H149.43V109c-1.13-.14-2.27-.25-3.43-.3h-3.43v42.17H100.39v6.86h42.18V200Z" style="fill:#f0f0f0"></path><rect x="139.14" y="108.74" width="3.43" height="42.18" style="fill:#e6e6e6"></rect><rect x="139.14" y="157.77" width="3.43" height="42.18" style="fill:#e6e6e6"></rect><rect x="82.45" y="269.54" width="185.13" height="99.63" transform="translate(350.03 638.71) rotate(180)" style="fill:#e6e6e6"></rect><rect x="252.74" y="373.31" width="11.64" height="8.79" transform="translate(517.11 755.4) rotate(180)" style="fill:#e6e6e6"></rect><rect x="68.32" y="262.13" width="11.64" height="119.97" transform="translate(148.27 644.22) rotate(180)" style="fill:#e6e6e6"></rect><path d="M79.81,262.13v120H86v-6.72H264.37v6.72h6.21v-120H79.81ZM86,273h86.07v41.66H86Zm178.35,91.53H178.3V273h86.07ZM86,364.52V320.86h86.07v43.66Z" style="fill:#f0f0f0"></path><rect x="178.3" y="277.47" width="80.26" height="87.05" transform="translate(436.85 641.98) rotate(180)" style="fill:#f5f5f5"></rect><path d="M181.93,318.38a3.73,3.73,0,1,0,3.73-3.73A3.73,3.73,0,0,0,181.93,318.38Z" style="fill:#fafafa"></path><path d="M185.66,322.11a3.7,3.7,0,0,0,3.38-2.18,3.73,3.73,0,1,1-6.76,0A3.71,3.71,0,0,0,185.66,322.11Z" style="fill:#e0e0e0"></path><polygon points="227.43 364.52 208.28 364.52 199.13 277.47 218.28 277.47 227.43 364.52" style="fill:#fafafa"></polygon><polygon points="203.38 364.52 199.57 364.52 190.42 277.47 194.23 277.47 203.38 364.52" style="fill:#fafafa"></polygon><rect x="152.7" y="277.38" width="7.58" height="37.23" transform="translate(312.97 591.99) rotate(180)" style="fill:#fafafa"></rect><rect x="121.25" y="277.38" width="7.58" height="37.23" transform="translate(250.08 591.99) rotate(180)" style="fill:#f5f5f5"></rect><rect x="145.11" y="280" width="7.58" height="34.62" transform="translate(297.81 594.61) rotate(180)" style="fill:#f5f5f5"></rect><rect x="128.83" y="280" width="7.58" height="34.62" transform="translate(265.25 594.61) rotate(180)" style="fill:#fafafa"></rect><rect x="136.42" y="277.38" width="4.9" height="37.23" transform="translate(277.74 591.99) rotate(180)" style="fill:#ebebeb"></rect><rect x="141.32" y="280" width="3.79" height="34.62" transform="translate(286.43 594.61) rotate(180)" style="fill:#fafafa"></rect><rect x="113.66" y="277.38" width="7.58" height="37.23" transform="translate(234.91 591.99) rotate(180)" style="fill:#ebebeb"></rect><rect x="106.08" y="280" width="7.58" height="34.62" transform="translate(219.74 594.61) rotate(180)" style="fill:#e6e6e6"></rect><rect x="89.8" y="280" width="7.58" height="34.62" transform="translate(187.19 594.61) rotate(180)" style="fill:#e6e6e6"></rect><rect x="97.39" y="277.38" width="4.9" height="37.23" transform="translate(199.67 591.99) rotate(180)" style="fill:#fafafa"></rect><rect x="102.29" y="280" width="3.79" height="34.62" transform="translate(208.37 594.61) rotate(180)" style="fill:#ebebeb"></rect><rect x="86.01" y="278.26" width="3.79" height="36.35" transform="translate(175.81 592.88) rotate(180)" style="fill:#ebebeb"></rect><rect x="86.01" y="327.28" width="7.58" height="37.23" style="fill:#ebebeb"></rect><rect x="117.46" y="327.28" width="7.58" height="37.23" style="fill:#fafafa"></rect><rect x="93.59" y="329.9" width="7.58" height="34.62" style="fill:#fafafa"></rect><rect x="109.87" y="329.9" width="7.58" height="34.62" style="fill:#ebebeb"></rect><rect x="104.97" y="327.28" width="4.9" height="37.23" style="fill:#fafafa"></rect><rect x="101.18" y="329.9" width="3.79" height="34.62" style="fill:#f5f5f5"></rect><rect x="125.04" y="327.28" width="7.58" height="37.23" style="fill:#ebebeb"></rect><rect x="132.62" y="329.9" width="7.58" height="34.62" style="fill:#f5f5f5"></rect><rect x="148.9" y="329.9" width="7.58" height="34.62" style="fill:#e6e6e6"></rect><rect x="144" y="327.28" width="4.9" height="37.23" style="fill:#fafafa"></rect><rect x="160.28" y="327.28" width="4.9" height="37.23" style="fill:#fafafa"></rect><rect x="140.21" y="329.9" width="3.79" height="34.62" style="fill:#ebebeb"></rect><rect x="156.49" y="328.17" width="3.79" height="36.35" style="fill:#ebebeb"></rect></g><g id="freepik--Shadow--inject-3"><ellipse id="freepik--path--inject-3" cx="245.18" cy="413.82" rx="218.42" ry="12.76" style="fill:#f5f5f5"></ellipse></g><g id="freepik--character-2--inject-3"><path d="M368.46,352.85V414h3.38V383.4c0-10.73,5.68-19.43,12.67-19.43s12.67,8.7,12.67,19.43V414h3.38V352.85Z" style="fill:#407BFF"></path><path d="M368.46,352.85V414h3.38V383.4c0-10.73,5.68-19.43,12.67-19.43s12.67,8.7,12.67,19.43V414h3.38V352.85Z" style="fill:#fff;opacity:0.1"></path><polygon points="396.31 352.85 348.31 352.85 357.31 303.4 402.31 303.4 396.31 352.85" style="fill:#407BFF"></polygon><polygon points="396.31 352.85 348.31 352.85 357.31 303.4 402.31 303.4 396.31 352.85" style="fill:#fff;opacity:0.30000000000000004"></polygon><path d="M319.21,352.85V414h5.19V383.4a19.44,19.44,0,0,1,38.88,0V414h5.18V352.85Z" style="fill:#407BFF"></path><path d="M319.21,352.85V414h3.38V383.4c0-10.73,5.68-19.43,12.67-19.43s12.67,8.7,12.67,19.43V414h3.38V352.85Z" style="fill:#407BFF"></path><path d="M319.21,352.85V414h3.38V383.4c0-10.73,5.68-19.43,12.67-19.43s12.67,8.7,12.67,19.43V414h3.38V352.85Z" style="fill:#fff;opacity:0.30000000000000004"></path><path d="M400.56,303.4l-9,49.45H351.31V414h5.19V383.4a19.44,19.44,0,0,1,38.88,0V414h5.18V352.85l6-49.45Z" style="fill:#407BFF"></path><path d="M400.56,303.4l-9,49.45H351.31V414h5.19V383.4a19.44,19.44,0,0,1,38.88,0V414h5.18V352.85l6-49.45Z" style="fill:#fff;opacity:0.5"></path><path d="M319.93,326.59c-4.6.56-14.5,3.83-14.17,10.66s6.17,67.67,6.17,67.67h9.17s6.33-49.5,3.5-57.67h11.16L325.1,326.59S321.21,326.43,319.93,326.59Z" style="fill:#eec1bb"></path><path d="M342.16,319.63s-2.89,2.94-4.17,3.33c-6.33,2-15.5-.33-24.33,4.17,0,0,10.92-1.52,14.16,20.83,0,0,19.67,3.83,39.34,2.67s7.17-31,7.17-31Z" style="fill:#263238"></path><path d="M342.16,319.63s-2.89,2.94-4.17,3.33c-6.33,2-15.5-.33-24.33,4.17,0,0,10.92-1.52,14.16,20.83,0,0,19.67,3.83,39.34,2.67s7.17-31,7.17-31Z" style="opacity:0.5"></path><path d="M310.33,328.38A14.74,14.74,0,0,1,321,334c4.59,5.68,5.92,14.59,5.92,14.59l3.17.58s.81-7.49-4.92-15.83-10.5-7.67-10.5-7.67Z" style="fill:#407BFF"></path><path d="M308.51,405.07a3.78,3.78,0,0,1-2.59-.72.8.8,0,0,1,0-.91,1.1,1.1,0,0,1,.67-.48c1.48-.38,4.53,1.44,4.67,1.52a.2.2,0,0,1,.09.22.19.19,0,0,1-.17.16A15.28,15.28,0,0,1,308.51,405.07Zm-1.38-1.74a1.36,1.36,0,0,0-.4,0,.58.58,0,0,0-.42.29c-.16.25-.1.38-.05.45.4.59,2.63.64,4.28.46A9.65,9.65,0,0,0,307.13,403.33Z" style="fill:#407BFF"></path><path d="M311.18,404.86a.1.1,0,0,1-.09,0c-1-.48-3.14-2.44-2.93-3.43,0-.24.21-.52.79-.57a1.54,1.54,0,0,1,1.16.38c1.11.94,1.3,3.33,1.31,3.44a.2.2,0,0,1-.1.18A.17.17,0,0,1,311.18,404.86Zm-2.1-3.61-.12,0c-.38,0-.4.18-.42.23-.06.6,1.3,2.12,2.39,2.79a4.92,4.92,0,0,0-1.13-2.73,1.11,1.11,0,0,0-.72-.27Z" style="fill:#407BFF"></path><path d="M312.14,403.64l9.64.17a.78.78,0,0,1,.75.62l1.6,7.87a1.28,1.28,0,0,1-1,1.53,1.24,1.24,0,0,1-.27,0c-3.48-.12-6.57-.36-10.89-.43-5.11-.09-3.82.55-9.83.53-3.62,0-4.21-4.14-2.67-4.31,7-.77,7.8-2.87,10.55-5.34A3.16,3.16,0,0,1,312.14,403.64Z" style="fill:#263238"></path><path d="M344,331.46s-16.5.83-16.16,7.67S335,404.79,335,404.79h9.17s6.33-45.5,3.5-53.66h12.17l-10.67-19.67Z" style="fill:#eec1bb"></path><path d="M387.66,319.63s2.75,30.25-18,32.25-18.25,0-18.25,0S346.77,336,332,333c0,0,14.35-3.83,17.14-8.1.58-.9,1.75-3.25,1.75-3.25Z" style="fill:#263238"></path><path d="M328.83,334.29s17.12,7,21.33,18.47l4.37.56s-3.2-14.86-21.37-21.53Z" style="fill:#407BFF"></path><path d="M331.76,405.07a3.78,3.78,0,0,1-2.59-.72.8.8,0,0,1,0-.91,1.1,1.1,0,0,1,.67-.48c1.48-.38,4.53,1.44,4.67,1.52a.2.2,0,0,1,.09.22.19.19,0,0,1-.17.16A15.28,15.28,0,0,1,331.76,405.07Zm-1.38-1.74a1.36,1.36,0,0,0-.4,0,.58.58,0,0,0-.42.29c-.16.25-.1.38-.05.45.4.59,2.63.64,4.28.46A9.65,9.65,0,0,0,330.38,403.33Z" style="fill:#407BFF"></path><path d="M334.43,404.86a.1.1,0,0,1-.09,0c-1-.48-3.14-2.44-2.93-3.43,0-.24.21-.52.79-.57a1.54,1.54,0,0,1,1.16.38c1.11.94,1.3,3.33,1.31,3.44a.2.2,0,0,1-.1.18A.17.17,0,0,1,334.43,404.86Zm-2.1-3.61-.12,0c-.38,0-.4.18-.42.23-.06.6,1.3,2.12,2.39,2.79a4.92,4.92,0,0,0-1.13-2.73,1.11,1.11,0,0,0-.72-.27Z" style="fill:#407BFF"></path><path d="M335.39,403.64l9.64.17a.78.78,0,0,1,.75.62l1.6,7.87a1.28,1.28,0,0,1-1,1.53,1.24,1.24,0,0,1-.27,0c-3.48-.12-6.57-.36-10.89-.43-5.11-.09-3.82.55-9.83.53-3.62,0-4.21-4.14-2.67-4.31,7-.77,7.8-2.87,10.55-5.34A3.16,3.16,0,0,1,335.39,403.64Z" style="fill:#263238"></path><path d="M334.28,289.61s-7.42,10-12.92,9.33-16.7-21.15-16.7-21.15l-7.31-5.59a2.39,2.39,0,0,1-.9-2.37l1.37-6.95a2.4,2.4,0,0,1,2.12-1.93l1.47-.14a2.4,2.4,0,0,1,2.52,1.64l3.73,11.34L320.76,286l6.23-6Z" style="fill:#eec1bb"></path><path d="M333.49,270.93,322,283.06a49,49,0,0,1,9.17,11.23s11.25-6.83,13.79-13.83c1.32-3.63-.17-8.49-2.87-10.4A6.6,6.6,0,0,0,333.49,270.93Z" style="fill:#263238"></path><path d="M334.91,269.13s13.46,25.16,5.75,51.75a102.52,102.52,0,0,0,47.75,1s.3-10.13.7-28.52c.35-15.82-.4-33.11-11.2-37.48C356.91,247.38,334.91,269.13,334.91,269.13Z" style="fill:#407BFF"></path><path d="M387.16,276.63s3.17,21.66-6,22.66-24.5-1.33-24.5-1.33l-8.5-1.73a2.31,2.31,0,0,1-1.74-1.57L345,289.93a2.26,2.26,0,0,1,.14-1.71l.58-1.18a2.31,2.31,0,0,1,3.52-.77l8.47,6.86,18.83-3.5-3.33-10Z" style="fill:#eec1bb"></path><path d="M361.85,254.45c-4.69-.55-6.69-10.15-6.69-10.15l-8.79,7.2,1.95,7.93s-3.4,11.32,6.35,8.82S361.85,254.45,361.85,254.45Z" style="fill:#eec1bb"></path><path d="M354.75,247.21l-1.9-1-6.48,5.31,1.34,5.45C352.72,257.89,354.75,247.21,354.75,247.21Z" style="opacity:0.1"></path><path d="M372.13,256c5.38-3.8,15.24,2.79,16.58,22.62,0,0-7.17-.66-15.51,4.4C373.2,283.06,365,261.1,372.13,256Z" style="fill:#263238"></path><path d="M357.43,235.12c-1.41,8.39-1.82,13.37-6.55,17.24-7.1,5.84-17.11.84-18.22-7.78-1-7.81,1.49-20.18,10.11-22.66a11.59,11.59,0,0,1,14.66,13.2Z" style="fill:#eec1bb"></path><path d="M344,236.15c-.07.7-.49,1.22-.94,1.17s-.75-.65-.68-1.34.5-1.2,1-1.15S344,235.47,344,236.15Z" style="fill:#2e353a"></path><path d="M340.23,245.63c-.06.69-.49,1.21-.94,1.16s-.76-.65-.68-1.34.49-1.2.94-1.15S340.31,245,340.23,245.63Z" style="fill:#2e353a"></path><path d="M336.2,235.33c-.08.68-.5,1.2-.95,1.15s-.75-.64-.67-1.32.49-1.21.94-1.16S336.27,234.64,336.2,235.33Z" style="fill:#2e353a"></path><path d="M339.05,235.9a24.55,24.55,0,0,1-3.91,5.52,4,4,0,0,0,3.22,1Z" style="fill:#d4827d"></path><path d="M347,233.22a.65.65,0,0,0,.2,0,.42.42,0,0,0,.14-.56,4.09,4.09,0,0,0-3.11-2,.41.41,0,0,0,0,.82h0a3.18,3.18,0,0,1,2.44,1.62A.42.42,0,0,0,347,233.22Z" style="fill:#2e353a"></path><path d="M333.51,231.87a.39.39,0,0,0,.34-.19,3.21,3.21,0,0,1,2.44-1.58.4.4,0,0,0,.4-.41.4.4,0,0,0-.41-.4,4,4,0,0,0-3.15,2,.39.39,0,0,0,.12.55h0A.36.36,0,0,0,333.51,231.87Z" style="fill:#2e353a"></path><path d="M355.21,240s-4.16-1.92-2.5-9.92c0,0-7.69,2-7.67-3.75,0,0-7.79,1.94-7.22-1.32,0,0-4.75.82-4.36-2.76.5-4.45,5.67-1.17,7-1.67,0,0-1-3.25,1.87-4.16,4.25-1.34,4.05,3.33,7.47,3.66s7.81-.5,7.82,3.25c0,0,5,1.08,4.54,6s5.55,6.25,3.39,9.25-4.25-.37-4.25-.37,1.42,5.54-1.92,7.37-.81,4.17-2.45,3.42S353.76,242.18,355.21,240Z" style="fill:#263238"></path><path d="M360.72,243.44a8.16,8.16,0,0,1-5.39,3c-2.82.3-3.77-2.32-2.6-4.74,1-2.18,3.78-5,6.42-4.16S362.33,241.35,360.72,243.44Z" style="fill:#eec1bb"></path><path d="M356.93,224.3s5.6-.14,3.4-3.69S356.93,224.3,356.93,224.3Z" style="fill:#263238"></path><path d="M288.23,249.64l1.33,1.33-3,3L299,266.44l3-3,1.16,1.16a4.5,4.5,0,1,0,6.36-6.37L308.37,257l3-3-3-3L307,252.3a4.5,4.5,0,0,1-6.37-6.37L302,244.6l-3-3-3,3-1.33-1.33a4.5,4.5,0,1,0-6.37,6.37Z" style="fill:#407BFF"></path><path d="M288.23,249.64l1.33,1.33-3,3L299,266.44l3-3,1.16,1.16a4.5,4.5,0,1,0,6.36-6.37L308.37,257l3-3-3-3L307,252.3a4.5,4.5,0,0,1-6.37-6.37L302,244.6l-3-3-3,3-1.33-1.33a4.5,4.5,0,1,0-6.37,6.37Z" style="opacity:0.30000000000000004"></path></g><g id="freepik--Table--inject-3"><path d="M300.9,398.85a35.32,35.32,0,1,1,0-70.63h35.31V313.11H249.82L254.46,414h81.75V398.85Z" style="fill:#407BFF"></path><path d="M300.9,398.85a35.32,35.32,0,1,1,0-70.63h35.31V313.11H249.82L254.46,414h81.75V398.85Z" style="fill:#fff;opacity:0.5"></path><polygon points="254.46 413.96 203.37 413.96 198.72 313.11 249.82 313.11 254.46 413.96" style="fill:#407BFF"></polygon><polygon points="254.46 413.96 203.37 413.96 198.72 313.11 249.82 313.11 254.46 413.96" style="fill:#fff;opacity:0.30000000000000004"></polygon><rect x="194.08" y="307.63" width="57.29" height="5.49" style="fill:#407BFF"></rect><rect x="194.08" y="307.63" width="57.29" height="5.49" style="fill:#fff;opacity:0.1"></rect><rect x="251.37" y="307.63" width="89.49" height="5.49" style="fill:#407BFF"></rect><rect x="251.37" y="307.63" width="89.49" height="5.49" style="fill:#fff;opacity:0.30000000000000004"></rect><path d="M246.31,303.25h1.92v4.38h17.92v-4.38h1.67a4.59,4.59,0,0,0,0-9.18h-1.67V289.7h-4.37v1.92a4.59,4.59,0,1,1-9.18,0V289.7h-4.37v4.37h-1.92a4.59,4.59,0,0,0,0,9.18Z" style="fill:#407BFF"></path><path d="M246.31,303.25h1.92v4.38h17.92v-4.38h1.67a4.59,4.59,0,0,0,0-9.18h-1.67V289.7h-4.37v1.92a4.59,4.59,0,1,1-9.18,0V289.7h-4.37v4.37h-1.92a4.59,4.59,0,0,0,0,9.18Z" style="fill:#fff;opacity:0.5"></path><path d="M278.33,303.25h-1.92v4.38h17.93v-4.38H296a4.59,4.59,0,0,0,0-9.18h-1.66V289.7H290v-1.92a4.59,4.59,0,0,0-9.18,0v1.92h-4.37v4.37h1.92a4.59,4.59,0,0,1,0,9.18Z" style="fill:#407BFF"></path><path d="M232.51,294.07h1.92V289.7H216.5v4.37h-1.67a4.59,4.59,0,0,0,0,9.18h1.67v4.38h17.93v-4.38h-1.92a4.59,4.59,0,0,1,0-9.18Z" style="fill:#407BFF"></path><path d="M232.51,294.07h1.92V289.7H216.5v4.37h-1.67a4.59,4.59,0,0,0,0,9.18h1.67v4.38h17.93v-4.38h-1.92a4.59,4.59,0,0,1,0-9.18Z" style="opacity:0.30000000000000004"></path></g></svg>